<svg xmlns="http://www.w3.org/2000/svg" viewBox="0 0 32 32">
  <!-- White background for better visibility -->
  <rect width="32" height="32" fill="#ffffff" stroke="#e5e7eb" stroke-width="1"/>
  
  <!-- GS Logo optimized for small size -->
  <g transform="translate(3, 4) scale(0.8)">
    <!-- G part - made bolder for small size -->
    <path d="M2 6 L12 6 L12 9 L6 9 L6 18 L12 18 L12 15 L8.5 15 L8.5 12.5 L12 12.5 L12 21 L2 21 Z" 
          fill="#1f2937" stroke="#1f2937" stroke-width="0.5"/>
    
    <!-- Lightning Bolt - made more prominent -->
    <path d="M11 11 L16 11 L13.5 15 L17 15 L12.5 21 L14 15 L11.5 15 L11 11" 
          fill="#0ea5e9" stroke="#0ea5e9" stroke-width="0.3"/>
    
    <!-- S part - made bolder for small size -->
    <path d="M16 6 L26 6 L26 9 L20 9 L20 12.5 L26 12.5 L26 21 L16 21 L16 18 L22 18 L22 15.5 L16 15.5 Z" 
          fill="#1f2937" stroke="#1f2937" stroke-width="0.5"/>
  </g>
</svg>
